<svg width="23" height="18" viewBox="0 0 23 18" fill="none" xmlns="http://www.w3.org/2000/svg">
<path d="M10.5 18L7.325 15.15C6.125 14.0667 5.09583 13.1 4.2375 12.25C3.37917 11.4 2.67083 10.6 2.1125 9.85C1.55417 9.1 1.14583 8.375 0.8875 7.675C0.629167 6.975 0.5 6.24167 0.5 5.475C0.5 3.90833 1.025 2.60417 2.075 1.5625C3.125 0.520833 4.43333 0 6 0C6.86667 0 7.69167 0.183333 8.475 0.55C9.25833 0.916667 9.93333 1.43333 10.5 2.1C11.0667 1.43333 11.7417 0.916667 12.525 0.55C13.3083 0.183333 14.1333 0 15 0C16.4 0 17.675 0.491667 18.825 1.475C19.975 2.45833 20.55 3.79167 20.55 5.475C20.55 5.70833 20.5333 5.95417 20.5 6.2125C20.4667 6.47083 20.4167 6.73333 20.35 7H18.225C18.3083 6.7 18.375 6.41667 18.425 6.15C18.475 5.88333 18.5 5.63333 18.5 5.4C18.5 4.15 18.0833 3.27083 17.25 2.7625C16.4167 2.25417 15.6667 2 15 2C14.15 2 13.4167 2.22917 12.8 2.6875C12.1833 3.14583 11.6083 3.75 11.075 4.5H9.925C9.40833 3.75 8.82083 3.14583 8.1625 2.6875C7.50417 2.22917 6.78333 2 6 2C5.05 2 4.22917 2.32917 3.5375 2.9875C2.84583 3.64583 2.5 4.475 2.5 5.475C2.5 6.025 2.61667 6.58333 2.85 7.15C3.08333 7.71667 3.5 8.37083 4.1 9.1125C4.7 9.85417 5.51667 10.7208 6.55 11.7125C7.58333 12.7042 8.9 13.9 10.5 15.3C10.9333 14.9167 11.4417 14.475 12.025 13.975C12.6083 13.475 13.075 13.0583 13.425 12.725L14.85 14.15C14.4833 14.4833 14.0167 14.8958 13.45 15.3875C12.8833 15.8792 12.3833 16.3167 11.95 16.7L10.5 18ZM14.5 11V9H22.5V11H14.5Z" fill="#003459"/>
</svg>
