<svg width="22" height="22" viewBox="0 0 22 22" fill="none" xmlns="http://www.w3.org/2000/svg">
<path d="M15.325 11L13.325 8.99998H15.05L17.8 3.99998H8.32495L6.32495 1.99998H19.45C19.8333 1.99998 20.1291 2.16248 20.3375 2.48748C20.5458 2.81248 20.55 3.16664 20.35 3.54998L16.8 9.94998C16.6166 10.2833 16.3791 10.5416 16.0875 10.725C15.7958 10.9083 15.5416 11 15.325 11ZM6.49995 20C5.94995 20 5.47912 19.8041 5.08745 19.4125C4.69578 19.0208 4.49995 18.55 4.49995 18C4.49995 17.45 4.69578 16.9791 5.08745 16.5875C5.47912 16.1958 5.94995 16 6.49995 16C7.04995 16 7.52078 16.1958 7.91245 16.5875C8.30412 16.9791 8.49995 17.45 8.49995 18C8.49995 18.55 8.30412 19.0208 7.91245 19.4125C7.52078 19.8041 7.04995 20 6.49995 20ZM20 21.3L13.65 15H7.09995C6.36662 15 5.80828 14.6875 5.42495 14.0625C5.04162 13.4375 5.01662 12.7833 5.34995 12.1L6.39995 9.94998L4.59995 5.89998L0.199951 1.49998L1.59995 0.0999756L21.4 19.9L20 21.3ZM11.65 13L9.64995 11H8.09995L7.09995 13H11.65ZM16.5 20C15.95 20 15.4791 19.8041 15.0875 19.4125C14.6958 19.0208 14.5 18.55 14.5 18C14.5 17.45 14.6958 16.9791 15.0875 16.5875C15.4791 16.1958 15.95 16 16.5 16C17.05 16 17.5208 16.1958 17.9125 16.5875C18.3041 16.9791 18.5 17.45 18.5 18C18.5 18.55 18.3041 19.0208 17.9125 19.4125C17.5208 19.8041 17.05 20 16.5 20Z" fill="#003459"/>
</svg>
